<svg width="16" height="16" viewBox="0 0 16 16" fill="none" xmlns="http://www.w3.org/2000/svg">
<path d="M8.08594 15.9297C7.01302 15.9297 6.00781 15.7292 5.07031 15.3281C4.13281 14.9271 3.30729 14.3698 2.59375 13.6562C1.88542 12.9427 1.32812 12.1172 0.921875 11.1797C0.520833 10.2422 0.320312 9.23698 0.320312 8.16406C0.320312 7.09115 0.520833 6.08594 0.921875 5.14844C1.32812 4.20573 1.88542 3.38021 2.59375 2.67188C3.30729 1.95833 4.13281 1.40104 5.07031 1C6.00781 0.598958 7.01302 0.398438 8.08594 0.398438C9.15885 0.398438 10.1641 0.598958 11.1016 1C12.0443 1.40104 12.8698 1.95833 13.5781 2.67188C14.2917 3.38021 14.849 4.20573 15.25 5.14844C15.651 6.08594 15.8516 7.09115 15.8516 8.16406C15.8516 9.23698 15.651 10.2422 15.25 11.1797C14.849 12.1172 14.2917 12.9427 13.5781 13.6562C12.8698 14.3698 12.0443 14.9271 11.1016 15.3281C10.1641 15.7292 9.15885 15.9297 8.08594 15.9297ZM8.08594 14.0859C8.90885 14.0859 9.67708 13.9323 10.3906 13.625C11.1042 13.3177 11.7318 12.8932 12.2734 12.3516C12.8203 11.8099 13.2448 11.1823 13.5469 10.4688C13.8542 9.75 14.0078 8.98177 14.0078 8.16406C14.0078 7.34635 13.8542 6.58073 13.5469 5.86719C13.2448 5.14844 12.8203 4.51823 12.2734 3.97656C11.7318 3.4349 11.1042 3.01042 10.3906 2.70312C9.67708 2.39583 8.90885 2.24219 8.08594 2.24219C7.26823 2.24219 6.5026 2.39583 5.78906 2.70312C5.07552 3.01042 4.44531 3.4349 3.89844 3.97656C3.35677 4.51823 2.93229 5.14844 2.625 5.86719C2.31771 6.58073 2.16406 7.34635 2.16406 8.16406C2.16406 8.98177 2.31771 9.75 2.625 10.4688C2.93229 11.1823 3.35677 11.8099 3.89844 12.3516C4.44531 12.8932 5.07552 13.3177 5.78906 13.625C6.5026 13.9323 7.26823 14.0859 8.08594 14.0859ZM4.67969 8.16406C4.67969 7.92969 4.7526 7.73958 4.89844 7.59375C5.04948 7.44271 5.23958 7.36719 5.46875 7.36719H7.28906V5.53906C7.28906 5.3099 7.36198 5.1224 7.50781 4.97656C7.65885 4.83073 7.84635 4.75781 8.07031 4.75781C8.30469 4.75781 8.4974 4.83073 8.64844 4.97656C8.79948 5.1224 8.875 5.3099 8.875 5.53906V7.36719H10.7031C10.9271 7.36719 11.112 7.44271 11.2578 7.59375C11.4089 7.73958 11.4844 7.92969 11.4844 8.16406C11.4844 8.38802 11.4089 8.57552 11.2578 8.72656C11.112 8.8724 10.9271 8.94531 10.7031 8.94531H8.875V10.7812C8.875 11.0052 8.79948 11.1901 8.64844 11.3359C8.4974 11.4818 8.30469 11.5547 8.07031 11.5547C7.84635 11.5547 7.65885 11.4818 7.50781 11.3359C7.36198 11.1901 7.28906 11.0052 7.28906 10.7812V8.94531H5.46875C5.23958 8.94531 5.04948 8.8724 4.89844 8.72656C4.7526 8.57552 4.67969 8.38802 4.67969 8.16406Z" fill="#517499"/>
</svg>
