<svg width="14" height="20" viewBox="0 0 14 20" fill="none" xmlns="http://www.w3.org/2000/svg">
<path d="M2.75586 19.3535C1.33008 19.3535 0.597656 18.6016 0.597656 17.0586V10.4375C0.597656 9.07031 1.18359 8.32812 2.31641 8.18164V6.00391C2.31641 2.625 4.5625 0.828125 7.13086 0.828125C9.69922 0.828125 11.9453 2.625 11.9453 6.00391V8.18164C13.0781 8.32812 13.6641 9.08008 13.6641 10.4375V17.0586C13.6641 18.6016 12.9219 19.3535 11.4961 19.3535H2.75586ZM4.16211 5.85742V8.15234H10.0996V5.85742C10.0996 3.75781 8.74219 2.60547 7.13086 2.60547C5.50977 2.60547 4.16211 3.75781 4.16211 5.85742ZM3.11719 17.5859H11.1445C11.5254 17.5859 11.7305 17.3613 11.7305 16.9219V10.5742C11.7305 10.1445 11.5254 9.92969 11.1445 9.92969H3.11719C2.74609 9.92969 2.52148 10.1445 2.52148 10.5742V16.9219C2.52148 17.3613 2.74609 17.5859 3.11719 17.5859Z" fill="#353F49"/>
</svg>
