<svg width="27" height="27" viewBox="0 0 27 27" fill="none" xmlns="http://www.w3.org/2000/svg">
<path d="M13.3975 26.7949C11.5492 26.7949 9.81706 26.4463 8.20117 25.749C6.58529 25.0628 5.16309 24.1055 3.93457 22.877C2.70605 21.6484 1.74316 20.2262 1.0459 18.6104C0.348633 16.9834 0 15.2458 0 13.3975C0 11.5492 0.348633 9.81706 1.0459 8.20117C1.74316 6.57422 2.70605 5.14648 3.93457 3.91797C5.16309 2.68945 6.58529 1.7321 8.20117 1.0459C9.81706 0.348633 11.5492 0 13.3975 0C15.2458 0 16.9779 0.348633 18.5938 1.0459C20.2207 1.7321 21.6484 2.68945 22.877 3.91797C24.1055 5.14648 25.0684 6.57422 25.7656 8.20117C26.4629 9.81706 26.8115 11.5492 26.8115 13.3975C26.8115 15.2458 26.4629 16.9834 25.7656 18.6104C25.0684 20.2262 24.1055 21.6484 22.877 22.877C21.6484 24.1055 20.2207 25.0628 18.5938 25.749C16.9779 26.4463 15.2458 26.7949 13.3975 26.7949ZM13.3975 24.2715C14.9027 24.2715 16.3083 23.9893 17.6143 23.4248C18.9313 22.8604 20.0879 22.0801 21.084 21.084C22.0801 20.0879 22.8604 18.9368 23.4248 17.6309C23.9893 16.3138 24.2715 14.9027 24.2715 13.3975C24.2715 11.8923 23.9893 10.4867 23.4248 9.18066C22.8604 7.86361 22.0801 6.70703 21.084 5.71094C20.0879 4.71484 18.9313 3.93457 17.6143 3.37012C16.3083 2.80566 14.9027 2.52344 13.3975 2.52344C11.9033 2.52344 10.4977 2.80566 9.18066 3.37012C7.86361 3.93457 6.70703 4.71484 5.71094 5.71094C4.71484 6.70703 3.93457 7.86361 3.37012 9.18066C2.81673 10.4867 2.54004 11.8923 2.54004 13.3975C2.54004 14.9027 2.81673 16.3138 3.37012 17.6309C3.93457 18.9368 4.71484 20.0879 5.71094 21.084C6.70703 22.0801 7.86361 22.8604 9.18066 23.4248C10.4977 23.9893 11.9033 24.2715 13.3975 24.2715ZM11.9697 19.5732C11.7152 19.5732 11.4827 19.5234 11.2725 19.4238C11.0732 19.3132 10.8796 19.1305 10.6914 18.876L7.70312 15.1406C7.48177 14.8529 7.37109 14.5485 7.37109 14.2275C7.37109 13.9066 7.48177 13.6299 7.70312 13.3975C7.92448 13.165 8.19564 13.0488 8.5166 13.0488C8.71582 13.0488 8.90397 13.0931 9.08105 13.1816C9.25814 13.2591 9.43522 13.4141 9.6123 13.6465L11.9033 16.7344L17.0166 8.4668C17.2822 8.02409 17.6198 7.80273 18.0293 7.80273C18.3392 7.80273 18.6159 7.90234 18.8594 8.10156C19.1139 8.28971 19.2412 8.5498 19.2412 8.88184C19.2412 9.05892 19.2025 9.23047 19.125 9.39648C19.0475 9.55143 18.9645 9.70085 18.876 9.84473L13.165 18.876C12.8662 19.3408 12.4678 19.5732 11.9697 19.5732Z" fill="#517499"/>
</svg>
