<svg width="23" height="19" viewBox="0 0 23 19" fill="none" xmlns="http://www.w3.org/2000/svg">
<path d="M3.43945 18.0117C1.42773 18.0117 0.353516 16.957 0.353516 14.9551V3.72461C0.353516 1.72266 1.42773 0.667969 3.43945 0.667969H19.1914C21.2227 0.667969 22.2773 1.72266 22.2773 3.72461V14.9551C22.2773 16.957 21.2227 18.0117 19.1914 18.0117H3.43945ZM3.58594 16.0586H19.0449C19.8652 16.0586 20.3242 15.6387 20.3242 14.7598V3.91016C20.3242 3.04102 19.8652 2.62109 19.0449 2.62109H3.58594C2.75586 2.62109 2.30664 3.04102 2.30664 3.91016V14.7598C2.30664 15.6387 2.75586 16.0586 3.58594 16.0586ZM7.6582 9.28125C6.56445 9.28125 5.67578 8.36328 5.67578 7.12305C5.67578 5.9707 6.56445 5.00391 7.6582 5.00391C8.75195 5.00391 9.64062 5.9707 9.64062 7.12305C9.64062 8.36328 8.75195 9.29102 7.6582 9.28125ZM13.5371 6.40039C13.1855 6.40039 12.9316 6.13672 12.9316 5.80469C12.9316 5.47266 13.1855 5.21875 13.5371 5.21875H18.2246C18.5566 5.21875 18.8203 5.47266 18.8203 5.80469C18.8203 6.13672 18.5566 6.40039 18.2246 6.40039H13.5371ZM13.5371 9.93555C13.1855 9.93555 12.9316 9.67188 12.9316 9.33984C12.9316 9.00781 13.1855 8.75391 13.5371 8.75391H18.2246C18.5566 8.75391 18.8203 9.00781 18.8203 9.33984C18.8203 9.67188 18.5566 9.93555 18.2246 9.93555H13.5371ZM4.23047 13.4707C3.88867 13.4707 3.71289 13.2266 3.71289 12.9141C3.71289 12.0645 4.94336 9.89648 7.6582 9.89648C10.3633 9.89648 11.6133 12.0645 11.6133 12.9141C11.6133 13.2266 11.4375 13.4707 11.0859 13.4707H4.23047ZM13.5371 13.4707C13.1855 13.4707 12.9316 13.2168 12.9316 12.8848C12.9316 12.5527 13.1855 12.2793 13.5371 12.2793H18.2246C18.5566 12.2793 18.8203 12.5527 18.8203 12.8848C18.8203 13.2168 18.5566 13.4707 18.2246 13.4707H13.5371Z" fill="#353F49"/>
</svg>
