<svg width="15" height="15" viewBox="0 0 15 15" fill="none" xmlns="http://www.w3.org/2000/svg">
<path d="M1.3235 13.6762H2.43656L11.4686 4.64416L10.3555 3.5311L1.3235 12.5631V13.6762ZM0 14.9997V12.0134L11.6384 0.380064C11.7718 0.258891 11.9191 0.16529 12.0802 0.0992624C12.2416 0.0330875 12.4107 0 12.5876 0C12.7645 0 12.9358 0.0313968 13.1015 0.0941895C13.2674 0.156982 13.4143 0.256832 13.542 0.39374L14.6196 1.48475C14.7565 1.61254 14.8541 1.75959 14.9123 1.92591C14.9705 2.09223 14.9997 2.25855 14.9997 2.42487C14.9997 2.60237 14.9694 2.7717 14.9088 2.93287C14.8482 3.09419 14.7518 3.24154 14.6196 3.37492L2.98626 14.9997H0ZM10.9023 4.09733L10.3555 3.5311L11.4686 4.64416L10.9023 4.09733Z" fill="white"/>
</svg>
