<svg width="23" height="21" viewBox="0 0 23 21" fill="none" xmlns="http://www.w3.org/2000/svg">
<path d="M3.41016 20.3789C1.4082 20.3789 0.353516 19.3145 0.353516 17.2832V3.38672C0.353516 1.36523 1.4082 0.300781 3.41016 0.300781H13.2734C15.2754 0.300781 16.3301 1.36523 16.3301 3.38672V7.67383H14.377V3.5332C14.377 2.70312 13.9473 2.25391 13.0781 2.25391H3.60547C2.73633 2.25391 2.30664 2.70312 2.30664 3.5332V17.1367C2.30664 17.9668 2.73633 18.4258 3.60547 18.4258H13.0781C13.9473 18.4258 14.377 17.9668 14.377 17.1367V12.9863H16.3301V17.2832C16.3301 19.3145 15.2754 20.3789 13.2734 20.3789H3.41016ZM8.61523 10.3301C8.61523 9.83203 9.02539 9.42188 9.50391 9.42188H18.7324L20.0996 9.5L19.4941 9.02148L18.1367 7.75195C17.9609 7.5957 17.873 7.36133 17.873 7.13672C17.873 6.69727 18.1855 6.3457 18.6445 6.3457C18.8789 6.3457 19.0547 6.43359 19.2109 6.59961L22.1309 9.63672C22.3652 9.87109 22.4434 10.0859 22.4434 10.3301C22.4434 10.5645 22.3652 10.7891 22.1309 11.0234L19.2109 14.0605C19.0547 14.2266 18.8789 14.3145 18.6445 14.3145C18.1855 14.3145 17.873 13.9434 17.873 13.5039C17.873 13.2891 17.9609 13.0645 18.1367 12.9082L19.4941 11.6387L20.0996 11.1602L18.7324 11.2383H9.50391C9.02539 11.2383 8.61523 10.8281 8.61523 10.3301Z" fill="#F15656"/>
</svg>
