<svg width="55" height="52" viewBox="0 0 55 52" fill="none" xmlns="http://www.w3.org/2000/svg">
<path d="M9.70312 9.21094C9.29688 9.21094 8.95312 9.07031 8.67188 8.78906C8.40625 8.49219 8.27344 8.13281 8.27344 7.71094C8.27344 7.32031 8.40625 6.97656 8.67188 6.67969C8.95312 6.36719 9.29688 6.21094 9.70312 6.21094H22.5469C22.9531 6.21094 23.2891 6.36719 23.5547 6.67969C23.8359 6.97656 23.9766 7.32031 23.9766 7.71094C23.9766 8.13281 23.8359 8.49219 23.5547 8.78906C23.2891 9.07031 22.9531 9.21094 22.5469 9.21094H9.70312ZM1.42969 20.3906C1.02344 20.3906 0.679688 20.2422 0.398438 19.9453C0.132812 19.6484 0 19.2969 0 18.8906C0 18.4844 0.132812 18.1328 0.398438 17.8359C0.679688 17.5391 1.02344 17.3906 1.42969 17.3906H16.9219C17.3281 17.3906 17.6641 17.5391 17.9297 17.8359C18.2109 18.1172 18.3516 18.4688 18.3516 18.8906C18.3516 19.3125 18.2109 19.6719 17.9297 19.9688C17.6641 20.25 17.3281 20.3906 16.9219 20.3906H1.42969ZM8.32031 31.5703C7.91406 31.5703 7.57031 31.4219 7.28906 31.125C7.02344 30.8281 6.89062 30.4688 6.89062 30.0469C6.89062 29.6562 7.02344 29.3125 7.28906 29.0156C7.57031 28.7031 7.91406 28.5469 8.32031 28.5469H16.8984C17.3047 28.5469 17.6406 28.6953 17.9062 28.9922C18.1875 29.2891 18.3281 29.6406 18.3281 30.0469C18.3281 30.4688 18.1875 30.8281 17.9062 31.125C17.6406 31.4219 17.3047 31.5703 16.8984 31.5703H8.32031ZM2.29688 42.6094C1.89062 42.6094 1.54688 42.4609 1.26562 42.1641C1 41.8672 0.867188 41.5156 0.867188 41.1094C0.867188 40.7031 1 40.3516 1.26562 40.0547C1.54688 39.7422 1.89062 39.5859 2.29688 39.5859H14.0859C14.4922 39.5859 14.8359 39.7422 15.1172 40.0547C15.3984 40.3516 15.5391 40.7031 15.5391 41.1094C15.5391 41.5156 15.3984 41.8672 15.1172 42.1641C14.8359 42.4609 14.4922 42.6094 14.0859 42.6094H2.29688ZM27.2578 50.2969C26.8047 50.8438 26.2734 51.1172 25.6641 51.1172C25.0547 51.1328 24.5156 50.9453 24.0469 50.5547C23.5781 50.1797 23.3047 49.6875 23.2266 49.0781C23.1484 48.4844 23.3906 47.8594 23.9531 47.2031L30.8906 38.9766L32.0625 33.6328L35.9062 38.4375L35.3672 40.0312C35.2266 40.4531 35.1016 40.7734 34.9922 40.9922C34.8828 41.1953 34.6484 41.5 34.2891 41.9062L27.2578 50.2969ZM44.3203 49.5703L39.4219 39.6328C39.3281 39.4453 39.2422 39.2734 39.1641 39.1172C39.1016 38.9609 38.9453 38.7344 38.6953 38.4375L33.9609 32.5078C33.0547 31.3828 32.4297 30.4062 32.0859 29.5781C31.7578 28.75 31.6406 27.6953 31.7344 26.4141L32.1328 21.3281C32.1484 21.0156 32 20.7969 31.6875 20.6719C31.375 20.5312 31.0703 20.6016 30.7734 20.8828L29.1094 22.3828L28.5703 28.4531C28.5078 29.2031 28.2812 29.7734 27.8906 30.1641C27.5 30.5391 26.9766 30.7031 26.3203 30.6562C25.6641 30.625 25.1484 30.3828 24.7734 29.9297C24.4141 29.4609 24.2578 28.875 24.3047 28.1719L24.75 22.6406C24.7969 21.875 24.9375 21.2266 25.1719 20.6953C25.4062 20.1484 25.8203 19.5859 26.4141 19.0078L30 15.4922C31.1406 14.3672 32.1875 13.5 33.1406 12.8906C34.1094 12.2812 35.2109 11.9766 36.4453 11.9766C38.1016 11.9766 39.375 12.5234 40.2656 13.6172C41.1719 14.7109 41.5703 16.0703 41.4609 17.6953L40.9922 24.4688C40.8984 25.6719 40.7578 26.7188 40.5703 27.6094C40.3984 28.5 40.1016 29.5547 39.6797 30.7734L39.4922 31.3594L42.5156 35.6484C42.7344 35.9766 42.9609 36.3281 43.1953 36.7031C43.4297 37.0781 43.6406 37.4453 43.8281 37.8047L48.6094 47.5078C49 48.3047 49.0703 49 48.8203 49.5938C48.5859 50.1875 48.1797 50.6094 47.6016 50.8594C47.0391 51.125 46.4453 51.1641 45.8203 50.9766C45.1953 50.7891 44.6953 50.3203 44.3203 49.5703ZM52.5234 21.1406C53.2266 21.1406 53.7969 21.3359 54.2344 21.7266C54.6875 22.1172 54.9141 22.6328 54.9141 23.2734C54.9141 23.9453 54.6953 24.4766 54.2578 24.8672C53.8203 25.2422 53.2422 25.4297 52.5234 25.4297H47.4844C46.7812 25.4297 46.2266 25.3594 45.8203 25.2188C45.4141 25.0781 45.0156 24.8125 44.625 24.4219L43.2891 23.1094L43.6641 17.2969L47.1094 21.1406H52.5234ZM39.0938 9.89062C38.1875 9.89062 37.3594 9.67188 36.6094 9.23438C35.8594 8.78125 35.2578 8.17969 34.8047 7.42969C34.3672 6.67969 34.1484 5.85156 34.1484 4.94531C34.1484 4.03906 34.3672 3.21094 34.8047 2.46094C35.2578 1.71094 35.8594 1.11719 36.6094 0.679688C37.3594 0.226563 38.1875 0 39.0938 0C40.0156 0 40.8516 0.226563 41.6016 0.679688C42.3516 1.11719 42.9453 1.71094 43.3828 2.46094C43.8203 3.21094 44.0391 4.03906 44.0391 4.94531C44.0391 5.85156 43.8203 6.67969 43.3828 7.42969C42.9453 8.17969 42.3516 8.78125 41.6016 9.23438C40.8516 9.67188 40.0156 9.89062 39.0938 9.89062Z" fill="#F15656"/>
</svg>
