<svg width="26" height="23" viewBox="0 0 26 23" fill="none" xmlns="http://www.w3.org/2000/svg">
<path d="M3.64258 13.2324V9.15039L1.04492 7.95898C0.371094 7.65625 0 7.05078 0 6.40625C0 5.76172 0.371094 5.15625 1.04492 4.84375L10.1953 0.673828C11.2109 0.205078 12.041 0 12.8516 0.00976562C13.6621 0 14.4824 0.205078 15.5078 0.673828L24.6484 4.84375C25.3223 5.15625 25.6934 5.76172 25.6934 6.40625C25.6934 7.05078 25.3223 7.65625 24.6484 7.95898L22.0508 9.15039V13.2324C22.0508 16.2305 18.2715 18.5742 12.8516 18.5742C10.8301 18.5742 9.04297 18.252 7.58789 17.6855V17.7832C8.10547 17.959 8.41797 18.4082 8.41797 19.0332V21.5332C8.41797 22.3438 7.89062 22.8711 7.08008 22.8711H6.66016C5.84961 22.8711 5.32227 22.3438 5.32227 21.5332V19.0332C5.32227 18.4082 5.64453 17.9492 6.16211 17.7734V17.002C4.57031 16.0352 3.64258 14.7168 3.64258 13.2324ZM12.8516 10.8789C13.4277 10.8789 13.9844 10.7227 14.7559 10.3711L22.8906 6.66992C23.0371 6.61133 23.1055 6.51367 23.1055 6.40625C23.1055 6.28906 23.0371 6.20117 22.8906 6.13281L14.7559 2.43164C13.9844 2.08008 13.4277 1.93359 12.8516 1.93359C12.2656 1.93359 11.709 2.08008 10.9375 2.43164L2.80273 6.13281C2.65625 6.20117 2.58789 6.28906 2.58789 6.40625C2.58789 6.51367 2.65625 6.61133 2.80273 6.66992L7.02148 8.59375L10.8008 6.64062C10.7715 6.5625 10.7617 6.48438 10.7617 6.40625C10.7617 5.70312 11.7969 5.20508 12.8809 5.20508C13.9551 5.20508 14.9805 5.69336 14.9805 6.40625C14.9805 7.11914 13.9551 7.61719 12.8809 7.61719C12.5586 7.61719 12.2461 7.57812 11.9727 7.5L8.54492 9.28711L10.9375 10.3711C11.709 10.7227 12.2656 10.8789 12.8516 10.8789ZM5.51758 13.2324C5.51758 13.75 5.74219 14.248 6.16211 14.707V10.293L5.51758 10V13.2324ZM12.8516 12.8027C12.041 12.8125 11.2109 12.5977 10.1953 12.1387L7.58789 10.9473V15.7422C8.86719 16.3867 10.6738 16.7969 12.8516 16.7969C17.2461 16.7969 20.1758 15.0977 20.1758 13.2324V10L15.5078 12.1387C14.4824 12.5977 13.6621 12.8125 12.8516 12.8027Z" fill="#353F49"/>
</svg>
