<svg width="9" height="14" viewBox="0 0 9 14" fill="none" xmlns="http://www.w3.org/2000/svg">
<path d="M8.72557 7.04793C8.72557 7.21483 8.69347 7.36889 8.62928 7.51012C8.56508 7.65134 8.46559 7.78936 8.33078 7.92416L2.56307 13.6341C2.35123 13.8459 2.09446 13.9519 1.79275 13.9519C1.47821 13.9519 1.21181 13.8459 0.993555 13.6341C0.775299 13.4158 0.666172 13.1527 0.666172 12.8445C0.666172 12.5364 0.784928 12.2636 1.02244 12.0261L6.07762 7.04793L1.02244 2.06979C0.784928 1.83227 0.666172 1.55945 0.666172 1.25133C0.666172 0.943204 0.775299 0.683223 0.993555 0.471387C1.21181 0.253132 1.47821 0.144004 1.79275 0.144004C2.09446 0.144004 2.35123 0.249922 2.56307 0.461758L8.33078 6.1717C8.59397 6.42205 8.72557 6.71413 8.72557 7.04793Z" fill="#A9B6B9"/>
</svg>
