<svg width="49" height="49" viewBox="0 0 49 49" fill="none" xmlns="http://www.w3.org/2000/svg">
<path d="M24.3242 48.6484C20.9557 48.6484 17.8073 48.0221 14.8789 46.7695C11.9505 45.5169 9.36914 43.7734 7.13477 41.5391C4.90039 39.3047 3.14844 36.7233 1.87891 33.7949C0.626302 30.8496 0 27.6927 0 24.3242C0 20.9727 0.626302 17.8242 1.87891 14.8789C3.14844 11.9336 4.90039 9.35221 7.13477 7.13477C9.36914 4.90039 11.9505 3.1569 14.8789 1.9043C17.8073 0.634766 20.9557 0 24.3242 0C27.6758 0 30.8242 0.634766 33.7695 1.9043C36.7148 3.1569 39.2962 4.90039 41.5137 7.13477C43.748 9.35221 45.4915 11.9336 46.7441 14.8789C48.0137 17.8242 48.6484 20.9727 48.6484 24.3242C48.6484 27.6927 48.0137 30.8496 46.7441 33.7949C45.4915 36.7233 43.748 39.3047 41.5137 41.5391C39.2962 43.7734 36.7148 45.5169 33.7695 46.7695C30.8242 48.0221 27.6758 48.6484 24.3242 48.6484ZM24.3242 44.9668C27.1849 44.9668 29.8594 44.4251 32.3477 43.3418C34.8359 42.2754 37.028 40.8027 38.9238 38.9238C40.8197 37.028 42.2923 34.8359 43.3418 32.3477C44.4082 29.8594 44.9414 27.1849 44.9414 24.3242C44.9414 21.4805 44.4082 18.8145 43.3418 16.3262C42.2923 13.8379 40.8197 11.6458 38.9238 9.75C37.028 7.85417 34.8359 6.37305 32.3477 5.30664C29.8594 4.24023 27.1849 3.70703 24.3242 3.70703C21.4635 3.70703 18.7891 4.24023 16.3008 5.30664C13.8125 6.37305 11.6204 7.85417 9.72461 9.75C7.8457 11.6458 6.37305 13.8379 5.30664 16.3262C4.24023 18.8145 3.70703 21.4805 3.70703 24.3242C3.70703 27.1849 4.24023 29.8594 5.30664 32.3477C6.37305 34.8359 7.8457 37.028 9.72461 38.9238C11.6204 40.8027 13.8125 42.2754 16.3008 43.3418C18.7891 44.4251 21.4635 44.9668 24.3242 44.9668ZM14.6504 26.1777C14.041 26.1777 13.5417 26.0254 13.1523 25.7207C12.763 25.416 12.5684 24.9674 12.5684 24.375C12.5684 23.7995 12.7546 23.3509 13.127 23.0293C13.4993 22.7077 14.0072 22.5469 14.6504 22.5469H33.9727C34.6159 22.5469 35.1237 22.7077 35.4961 23.0293C35.8685 23.3509 36.0547 23.7995 36.0547 24.375C36.0547 24.9674 35.86 25.416 35.4707 25.7207C35.0814 26.0254 34.582 26.1777 33.9727 26.1777H14.6504Z" fill="#F15656"/>
</svg>
