<svg width="26" height="22" viewBox="0 0 26 22" fill="none" xmlns="http://www.w3.org/2000/svg">
<path d="M4.19511 21.6248C3.09409 21.6248 2.25884 21.3454 1.68935 20.7868C1.11986 20.2282 0.83511 19.3983 0.83511 18.2973V7.9407C0.83511 6.84511 1.11986 6.01799 1.68935 5.45934C2.25884 4.89528 3.09409 4.61324 4.19511 4.61324H22.3131C23.4141 4.61324 24.2466 4.89528 24.8107 5.45934C25.3802 6.01799 25.6649 6.84511 25.6649 7.9407V18.2973C25.6649 19.3983 25.3802 20.2282 24.8107 20.7868C24.2466 21.3454 23.4141 21.6248 22.3131 21.6248H4.19511ZM7.74223 5.38612V3.4824C7.74223 2.53867 8.00528 1.83358 8.53138 1.36714C9.05748 0.900701 9.78697 0.66748 10.7199 0.66748H15.7721C16.7375 0.66748 17.4751 0.900701 17.9849 1.36714C18.5002 1.83358 18.7578 2.53867 18.7578 3.4824V5.36985H16.8866V3.53934C16.8866 3.17053 16.7809 2.88578 16.5693 2.68511C16.3632 2.48443 16.0649 2.38409 15.6744 2.38409H10.8175C10.4324 2.38409 10.1341 2.48443 9.92257 2.68511C9.71646 2.88036 9.61341 3.16511 9.61341 3.53934V5.38612H7.74223Z" fill="black"/>
</svg>
