<svg width="25" height="18" viewBox="0 0 25 18" fill="none" xmlns="http://www.w3.org/2000/svg">
<g style="mix-blend-mode:plus-darker">
<path d="M4.72833 14.8085H7.29918C7.60833 14.8085 7.85782 14.7163 8.04765 14.5319C8.23748 14.3421 8.3324 14.098 8.3324 13.7997V11.8553C8.3324 11.5624 8.23748 11.321 8.04765 11.1312C7.85782 10.9414 7.60833 10.8465 7.29918 10.8465H4.72833C4.41918 10.8465 4.16969 10.9414 3.97986 11.1312C3.79003 11.321 3.69511 11.5624 3.69511 11.8553V13.7997C3.69511 14.098 3.79003 14.3421 3.97986 14.5319C4.16969 14.7163 4.41918 14.8085 4.72833 14.8085ZM0.497822 6.74612H24.9941V4.3868H0.497822V6.74612ZM3.66257 18.0058C2.61579 18.0058 1.82664 17.7427 1.29511 17.2166C0.763585 16.6905 0.497822 15.9068 0.497822 14.8654V3.45934C0.497822 2.41799 0.763585 1.63426 1.29511 1.10816C1.82664 0.582056 2.61579 0.319005 3.66257 0.319005H21.8212C22.8734 0.319005 23.6653 0.584768 24.1968 1.11629C24.7283 1.6424 24.9941 2.42341 24.9941 3.45934V14.8654C24.9941 15.9014 24.7283 16.6824 24.1968 17.2085C23.6653 17.74 22.8734 18.0058 21.8212 18.0058H3.66257Z" fill="#353F49"/>
</g>
</svg>
