<svg width="19" height="20" viewBox="0 0 19 20" fill="none" xmlns="http://www.w3.org/2000/svg">
<g style="mix-blend-mode:plus-darker">
<path d="M2.16392 19.5265C1.6324 19.5265 1.21206 19.4044 0.902905 19.1604C0.599176 18.9217 0.447312 18.5963 0.447312 18.1841C0.447312 17.6417 0.577481 17.0749 0.83782 16.4837C1.10358 15.8926 1.48596 15.3176 1.98494 14.759C2.48392 14.1949 3.09138 13.6878 3.80731 13.2376C4.52324 12.7875 5.3368 12.4295 6.24799 12.1637C7.1646 11.8926 8.16528 11.757 9.25002 11.757C10.3348 11.757 11.3327 11.8926 12.2439 12.1637C13.1605 12.4295 13.9768 12.7875 14.6927 13.2376C15.4087 13.6878 16.0161 14.1949 16.5151 14.759C17.0195 15.3176 17.4019 15.8926 17.6622 16.4837C17.9226 17.0749 18.0527 17.6417 18.0527 18.1841C18.0527 18.5963 17.9009 18.9217 17.5971 19.1604C17.2934 19.4044 16.8731 19.5265 16.3361 19.5265H2.16392ZM9.25816 9.87765C8.69409 9.87765 8.15985 9.76104 7.65545 9.52782C7.15646 9.28917 6.71443 8.96104 6.32934 8.54341C5.94426 8.12578 5.64053 7.63765 5.41816 7.079C5.20121 6.52036 5.09273 5.91833 5.09273 5.2729C5.09273 4.63833 5.20121 4.04985 5.41816 3.50748C5.64053 2.95968 5.94426 2.47968 6.32934 2.06748C6.71985 1.65528 7.1646 1.33528 7.66358 1.10748C8.16799 0.879684 8.69951 0.765785 9.25816 0.765785C9.82223 0.765785 10.3538 0.879684 10.8527 1.10748C11.3571 1.32985 11.8019 1.64443 12.187 2.05121C12.5721 2.45799 12.8758 2.93528 13.0982 3.48307C13.3205 4.02545 13.4317 4.61663 13.4317 5.25663C13.4317 6.12443 13.2392 6.90816 12.8541 7.60782C12.4744 8.30205 11.9673 8.85528 11.3327 9.26748C10.7036 9.67426 10.0121 9.87765 9.25816 9.87765Z" fill="#353F49"/>
</g>
</svg>
