<svg width="25" height="26" viewBox="0 0 25 26" fill="none" xmlns="http://www.w3.org/2000/svg">
<path d="M12.4854 25.6689C10.7757 25.6689 9.17611 25.3473 7.68652 24.7041C6.2054 24.0693 4.89779 23.1849 3.76367 22.0508C2.62956 20.9167 1.74089 19.6048 1.09766 18.1152C0.462891 16.6257 0.145508 15.0303 0.145508 13.3291C0.145508 11.6279 0.462891 10.0326 1.09766 8.54297C1.74089 7.04492 2.62956 5.73307 3.76367 4.60742C4.89779 3.47331 6.2054 2.58887 7.68652 1.9541C9.17611 1.31087 10.7757 0.989258 12.4854 0.989258C14.1865 0.989258 15.7819 1.31087 17.2715 1.9541C18.7611 2.58887 20.0687 3.47331 21.1943 4.60742C22.3285 5.73307 23.2129 7.04492 23.8477 8.54297C24.4909 10.0326 24.8125 11.6279 24.8125 13.3291C24.8125 15.0303 24.4909 16.6257 23.8477 18.1152C23.2129 19.6048 22.3285 20.9167 21.1943 22.0508C20.0687 23.1849 18.7611 24.0693 17.2715 24.7041C15.7819 25.3473 14.1865 25.6689 12.4854 25.6689ZM12.4854 23.4092C13.8734 23.4092 15.1768 23.1468 16.3955 22.6221C17.6143 22.0973 18.6849 21.3737 19.6074 20.4512C20.5384 19.5286 21.262 18.4622 21.7783 17.252C22.2946 16.0332 22.5527 14.7256 22.5527 13.3291C22.5527 11.9326 22.2946 10.6292 21.7783 9.41895C21.262 8.2002 20.5384 7.12956 19.6074 6.20703C18.6849 5.28451 17.6143 4.56087 16.3955 4.03613C15.1768 3.51139 13.8734 3.24902 12.4854 3.24902C11.0889 3.24902 9.78125 3.51139 8.5625 4.03613C7.35221 4.56087 6.28158 5.28451 5.35059 6.20703C4.42806 7.12956 3.70443 8.2002 3.17969 9.41895C2.66341 10.6292 2.40527 11.9326 2.40527 13.3291C2.40527 14.7256 2.66341 16.0332 3.17969 17.252C3.70443 18.4622 4.42806 19.5286 5.35059 20.4512C6.28158 21.3737 7.35221 22.0973 8.5625 22.6221C9.78125 23.1468 11.0889 23.4092 12.4854 23.4092ZM7.07715 19.3721C6.83171 19.3721 6.64551 19.2959 6.51855 19.1436C6.3916 18.9912 6.32812 18.8008 6.32812 18.5723C6.32812 18.2422 6.45085 17.819 6.69629 17.3027C6.94173 16.7865 7.31836 16.266 7.82617 15.7412C8.33398 15.2165 8.97298 14.7764 9.74316 14.4209C10.5133 14.0654 11.4232 13.8877 12.4727 13.8877C13.5221 13.8877 14.432 14.0654 15.2021 14.4209C15.9723 14.7764 16.6071 15.2165 17.1064 15.7412C17.6143 16.266 17.9909 16.7865 18.2363 17.3027C18.4902 17.819 18.6172 18.2422 18.6172 18.5723C18.6172 18.8008 18.5537 18.9912 18.4268 19.1436C18.3083 19.2959 18.1221 19.3721 17.8682 19.3721H7.07715ZM12.4727 12.9229C11.6178 12.9144 10.89 12.5928 10.2891 11.958C9.69661 11.3232 9.40039 10.5319 9.40039 9.58398C9.40039 8.98307 9.54004 8.43717 9.81934 7.94629C10.0986 7.44694 10.4668 7.04915 10.9238 6.75293C11.3893 6.45671 11.9056 6.30859 12.4727 6.30859C13.0397 6.30859 13.556 6.45671 14.0215 6.75293C14.487 7.04915 14.8551 7.44694 15.126 7.94629C15.3968 8.43717 15.5322 8.98307 15.5322 9.58398C15.5322 10.2188 15.3968 10.79 15.126 11.2979C14.8551 11.8057 14.487 12.2077 14.0215 12.5039C13.556 12.7917 13.0397 12.9313 12.4727 12.9229Z" fill="#517499"/>
</svg>
