<svg width="78" height="78" viewBox="0 0 78 78" fill="none" xmlns="http://www.w3.org/2000/svg">
<path d="M38.9873 0C39.71 0 40.3122 0.25293 40.7939 0.758789C41.2998 1.26465 41.5527 1.87891 41.5527 2.60156V15.6094C41.5527 16.3561 41.2998 16.9824 40.7939 17.4883C40.3122 17.9701 39.71 18.2109 38.9873 18.2109C38.2406 18.2109 37.6263 17.9701 37.1445 17.4883C36.6628 16.9824 36.4219 16.3561 36.4219 15.6094V2.60156C36.4219 1.87891 36.6628 1.26465 37.1445 0.758789C37.6263 0.25293 38.2406 0 38.9873 0ZM49.0684 1.33691C49.7428 1.55371 50.2487 1.95117 50.5859 2.5293C50.9232 3.08333 50.9834 3.69759 50.7666 4.37207L49.6826 8.45508C49.4899 9.15365 49.1045 9.67155 48.5264 10.0088C47.9723 10.3219 47.3581 10.3942 46.6836 10.2256C46.0091 10.0329 45.5033 9.64746 45.166 9.06934C44.8529 8.49121 44.7926 7.86491 44.9854 7.19043L46.0693 3.10742C46.262 2.40885 46.6475 1.90299 47.2256 1.58984C47.8278 1.2526 48.4421 1.16829 49.0684 1.33691ZM58.4629 5.23926C59.0892 5.60059 59.4867 6.11849 59.6553 6.79297C59.848 7.46745 59.7637 8.11784 59.4023 8.74414L52.8984 20.0176C52.5371 20.668 52.0072 21.0895 51.3086 21.2822C50.6341 21.4508 49.9958 21.3545 49.3936 20.9932C48.7432 20.6318 48.3216 20.1139 48.1289 19.4395C47.9603 18.7409 48.0566 18.0785 48.418 17.4521L54.958 6.17871C55.3193 5.55241 55.8372 5.1429 56.5117 4.9502C57.1862 4.75749 57.8366 4.85384 58.4629 5.23926ZM66.5205 11.4541C67.0264 11.96 67.2793 12.5381 67.2793 13.1885C67.2793 13.8389 67.0264 14.429 66.5205 14.959L63.5215 17.9219C63.0397 18.4036 62.4616 18.6445 61.7871 18.6445C61.1367 18.6445 60.5706 18.4036 60.0889 17.9219C59.583 17.416 59.3301 16.8379 59.3301 16.1875C59.3542 15.5371 59.6191 14.971 60.125 14.4893L63.0879 11.4541C63.5456 10.9723 64.1117 10.7314 64.7861 10.7314C65.4606 10.7314 66.0387 10.9723 66.5205 11.4541ZM72.6992 19.4756C73.0605 20.1019 73.1569 20.7643 72.9883 21.4629C72.8197 22.1374 72.4222 22.6553 71.7959 23.0166L60.5225 29.5205C59.8721 29.9059 59.2096 30.0023 58.5352 29.8096C57.8607 29.6169 57.3428 29.2194 56.9814 28.6172C56.6201 27.9668 56.5238 27.3044 56.6924 26.6299C56.8851 25.9554 57.2946 25.4375 57.9209 25.0762L69.1943 18.5723C69.8206 18.2109 70.471 18.1146 71.1455 18.2832C71.8441 18.4518 72.362 18.8493 72.6992 19.4756ZM76.6377 28.9062C76.8304 29.5566 76.7581 30.1829 76.4209 30.7852C76.0837 31.3633 75.5537 31.7487 74.8311 31.9414L70.8203 33.0254C70.1217 33.2181 69.4834 33.1458 68.9053 32.8086C68.3512 32.4473 67.9899 31.9655 67.8213 31.3633C67.6286 30.6406 67.7008 30.0023 68.0381 29.4482C68.3753 28.8942 68.8812 28.5208 69.5557 28.3281L73.6387 27.1357C74.2891 26.943 74.9033 27.0273 75.4814 27.3887C76.0837 27.7259 76.4691 28.2318 76.6377 28.9062ZM77.9385 38.9873C77.9385 39.71 77.6855 40.3242 77.1797 40.8301C76.6979 41.3359 76.0837 41.5889 75.3369 41.5889H62.3291C61.6064 41.5889 60.9922 41.3359 60.4863 40.8301C60.0046 40.3242 59.7637 39.71 59.7637 38.9873C59.7637 38.2646 60.0046 37.6624 60.4863 37.1807C60.9922 36.6748 61.6064 36.4219 62.3291 36.4219H75.3369C76.0837 36.4219 76.6979 36.6748 77.1797 37.1807C77.6855 37.6624 77.9385 38.2646 77.9385 38.9873ZM76.6377 49.1045C76.4691 49.779 76.0957 50.2848 75.5176 50.6221C74.9635 50.9593 74.3252 51.0195 73.6025 50.8027L69.4834 49.7188C68.833 49.5501 68.3512 49.1768 68.0381 48.5986C67.7249 47.9964 67.6527 47.3701 67.8213 46.7197C67.9899 46.0452 68.3633 45.5514 68.9414 45.2383C69.5195 44.9251 70.1458 44.8529 70.8203 45.0215L74.9033 46.0693C75.6019 46.238 76.0957 46.6354 76.3848 47.2617C76.6979 47.8639 76.7822 48.4782 76.6377 49.1045ZM72.7354 58.4268C72.374 59.0771 71.8441 59.4987 71.1455 59.6914C70.471 59.8841 69.8206 59.7878 69.1943 59.4023L57.9209 52.8984C57.2946 52.5371 56.8851 52.0192 56.6924 51.3447C56.4997 50.6462 56.584 49.9837 56.9453 49.3574C57.3307 48.7311 57.8607 48.3337 58.5352 48.165C59.2096 47.9723 59.8721 48.0566 60.5225 48.418L71.7959 54.958C72.4222 55.3193 72.8197 55.8372 72.9883 56.5117C73.181 57.1862 73.0967 57.8245 72.7354 58.4268ZM66.5566 66.5566C66.0749 67.0384 65.4967 67.2793 64.8223 67.2793C64.1719 67.3034 63.5817 67.0625 63.0518 66.5566L60.0889 63.5576C59.6071 63.0758 59.3662 62.5098 59.3662 61.8594C59.3662 61.1849 59.5951 60.6068 60.0527 60.125C60.5586 59.5951 61.1367 59.3542 61.7871 59.4023C62.4375 59.4264 63.0277 59.6794 63.5576 60.1611L66.5928 63.0518C67.0986 63.5335 67.3395 64.1117 67.3154 64.7861C67.2913 65.4606 67.0384 66.0508 66.5566 66.5566ZM58.4629 72.6992C57.8366 73.0846 57.1862 73.181 56.5117 72.9883C55.8372 72.8197 55.3193 72.4222 54.958 71.7959L48.418 60.5225C48.0566 59.8721 47.9723 59.2096 48.165 58.5352C48.3577 57.8607 48.7673 57.3307 49.3936 56.9453C49.9958 56.584 50.6341 56.4997 51.3086 56.6924C52.0072 56.8851 52.5371 57.2946 52.8984 57.9209L59.4023 69.1943C59.7637 69.8206 59.848 70.471 59.6553 71.1455C59.4867 71.8441 59.0892 72.362 58.4629 72.6992ZM49.0684 76.6377C48.3698 76.8304 47.7435 76.7581 47.1895 76.4209C46.6595 76.1077 46.2982 75.6019 46.1055 74.9033L44.9131 70.7842C44.7445 70.1579 44.8288 69.5557 45.166 68.9775C45.5273 68.3994 46.0332 68.014 46.6836 67.8213C47.3581 67.6045 47.9723 67.6768 48.5264 68.0381C49.1045 68.3994 49.4899 68.9173 49.6826 69.5918L50.8027 73.6025C51.0195 74.277 50.9593 74.9033 50.6221 75.4814C50.2848 76.0837 49.7669 76.4691 49.0684 76.6377ZM38.9873 77.9385C38.2406 77.9385 37.6263 77.6855 37.1445 77.1797C36.6628 76.6979 36.4219 76.0837 36.4219 75.3369V62.3291C36.4219 61.6064 36.6628 61.0042 37.1445 60.5225C37.6263 60.0166 38.2406 59.7637 38.9873 59.7637C39.71 59.7637 40.3122 60.0166 40.7939 60.5225C41.2998 61.0042 41.5527 61.6064 41.5527 62.3291V75.3369C41.5527 76.0837 41.2998 76.6979 40.7939 77.1797C40.3122 77.6855 39.71 77.9385 38.9873 77.9385ZM28.7979 76.6738C28.1234 76.4811 27.6296 76.1077 27.3164 75.5537C27.0273 74.9997 26.9792 74.3734 27.1719 73.6748L28.292 69.5918C28.4847 68.9173 28.8581 68.4115 29.4121 68.0742C29.9902 67.7611 30.6045 67.6888 31.2549 67.8574C31.9535 68.0501 32.4593 68.4355 32.7725 69.0137C33.0856 69.5918 33.1579 70.2181 32.9893 70.8926L31.9053 74.9756C31.7367 75.6019 31.3392 76.0957 30.7129 76.457C30.1107 76.8184 29.4723 76.8906 28.7979 76.6738ZM19.5117 72.7354C18.8854 72.374 18.4759 71.8441 18.2832 71.1455C18.1146 70.471 18.2109 69.8206 18.5723 69.1943L25.04 57.9209C25.4255 57.2946 25.9554 56.8851 26.6299 56.6924C27.3044 56.4997 27.9668 56.584 28.6172 56.9453C29.2194 57.3307 29.6169 57.8607 29.8096 58.5352C30.0023 59.2096 29.9059 59.8721 29.5205 60.5225L23.0166 71.7959C22.6553 72.4222 22.1374 72.8197 21.4629 72.9883C20.7884 73.181 20.138 73.0967 19.5117 72.7354ZM11.418 66.5928C10.9121 66.0869 10.6592 65.5088 10.6592 64.8584C10.6592 64.208 10.9242 63.6299 11.4541 63.124L14.417 60.125C14.8988 59.6432 15.4769 59.4023 16.1514 59.4023C16.8258 59.4023 17.404 59.6432 17.8857 60.125C18.3916 60.6309 18.6325 61.209 18.6084 61.8594C18.5843 62.5098 18.3314 63.0879 17.8496 63.5938L14.8506 66.6289C14.417 67.1107 13.8509 67.3395 13.1523 67.3154C12.4779 67.3154 11.8997 67.0745 11.418 66.5928ZM5.23926 58.4629C4.87793 57.8366 4.78158 57.1862 4.9502 56.5117C5.11882 55.8372 5.52832 55.3193 6.17871 54.958L17.416 48.418C18.0664 48.0566 18.7288 47.9723 19.4033 48.165C20.1019 48.3577 20.6318 48.7673 20.9932 49.3936C21.3545 49.9958 21.4388 50.6462 21.2461 51.3447C21.0775 52.0192 20.668 52.5371 20.0176 52.8984L8.74414 59.4023C8.11784 59.7878 7.46745 59.8841 6.79297 59.6914C6.11849 59.4987 5.60059 59.0892 5.23926 58.4629ZM1.30078 49.1045C1.13216 48.43 1.20443 47.8158 1.51758 47.2617C1.83073 46.6836 2.36068 46.2982 3.10742 46.1055L7.11816 45.0215C7.79264 44.8288 8.41895 44.9131 8.99707 45.2744C9.59928 45.6117 9.99674 46.1055 10.1895 46.7559C10.3581 47.4544 10.2617 48.0807 9.90039 48.6348C9.56315 49.1647 9.05729 49.526 8.38281 49.7188L4.2998 50.8389C3.6735 51.0316 3.0472 50.9473 2.4209 50.5859C1.81868 50.2246 1.44531 49.7308 1.30078 49.1045ZM0 38.9873C0 38.2646 0.240885 37.6624 0.722656 37.1807C1.22852 36.6748 1.85482 36.4219 2.60156 36.4219H15.6094C16.3561 36.4219 16.9704 36.6748 17.4521 37.1807C17.958 37.6624 18.2109 38.2646 18.2109 38.9873C18.2109 39.71 17.958 40.3242 17.4521 40.8301C16.9704 41.3359 16.3561 41.5889 15.6094 41.5889H2.60156C1.85482 41.5889 1.22852 41.3359 0.722656 40.8301C0.240885 40.3242 0 39.71 0 38.9873ZM1.30078 28.8701C1.4694 28.2438 1.84277 27.762 2.4209 27.4248C2.99902 27.0876 3.63737 27.0153 4.33594 27.208L8.38281 28.292C9.08138 28.4606 9.58724 28.846 9.90039 29.4482C10.2376 30.0505 10.3219 30.6647 10.1533 31.291C9.9847 31.9896 9.61133 32.4954 9.0332 32.8086C8.45508 33.0977 7.81673 33.1579 7.11816 32.9893L3.07129 31.9414C2.4209 31.7728 1.91504 31.3874 1.55371 30.7852C1.19238 30.1829 1.10807 29.5446 1.30078 28.8701ZM5.23926 19.4756C5.60059 18.8734 6.11849 18.488 6.79297 18.3193C7.46745 18.1266 8.11784 18.2109 8.74414 18.5723L20.0176 25.0762C20.668 25.4375 21.0775 25.9554 21.2461 26.6299C21.4388 27.3044 21.3545 27.9548 20.9932 28.5811C20.6318 29.2074 20.1019 29.6169 19.4033 29.8096C18.7288 30.0023 18.0785 29.9059 17.4521 29.5205L6.17871 23.0166C5.52832 22.6553 5.10677 22.1374 4.91406 21.4629C4.74544 20.7884 4.85384 20.126 5.23926 19.4756ZM11.3818 11.418C11.9118 10.9121 12.4899 10.6592 13.1162 10.6592C13.7666 10.6592 14.3447 10.9242 14.8506 11.4541L17.8857 14.417C18.3675 14.9229 18.6084 15.513 18.6084 16.1875C18.6084 16.862 18.3675 17.4401 17.8857 17.9219C17.3558 18.4277 16.7656 18.6686 16.1152 18.6445C15.4889 18.5964 14.9108 18.3314 14.3809 17.8496L11.3457 14.8867C10.888 14.429 10.6592 13.863 10.6592 13.1885C10.6592 12.4899 10.9001 11.8997 11.3818 11.418ZM19.4756 5.20312C20.126 4.86589 20.7884 4.79362 21.4629 4.98633C22.1374 5.15495 22.6553 5.55241 23.0166 6.17871L29.5205 17.4521C29.9059 18.0785 30.0023 18.7409 29.8096 19.4395C29.6169 20.1139 29.2074 20.6198 28.5811 20.957C27.9548 21.3424 27.3044 21.4508 26.6299 21.2822C25.9554 21.0895 25.4375 20.668 25.0762 20.0176L18.5723 8.74414C18.2109 8.11784 18.1146 7.46745 18.2832 6.79297C18.4518 6.11849 18.8493 5.58854 19.4756 5.20312ZM28.8701 1.30078C29.5446 1.15625 30.1709 1.24056 30.749 1.55371C31.3271 1.86686 31.7126 2.38477 31.9053 3.10742L33.0254 7.1543C33.194 7.80469 33.1097 8.41895 32.7725 8.99707C32.4593 9.5752 31.9775 9.96061 31.3271 10.1533C30.5804 10.346 29.9421 10.2738 29.4121 9.93652C28.8822 9.59928 28.5088 9.08138 28.292 8.38281L27.1357 4.37207C26.943 3.64941 27.0153 2.98698 27.3525 2.38477C27.6898 1.78255 28.1956 1.42122 28.8701 1.30078Z" fill="#A9B6B9"/>
</svg>
