<svg width="23" height="17" viewBox="0 0 23 17" fill="none" xmlns="http://www.w3.org/2000/svg">
<path d="M3.43945 16.377C1.42773 16.377 0.353516 15.3223 0.353516 13.3203V3.35938C0.353516 1.35742 1.42773 0.302734 3.43945 0.302734H19.1914C21.2129 0.302734 22.2773 1.35742 22.2773 3.35938V13.3203C22.2773 15.3223 21.2129 16.377 19.1914 16.377H3.43945ZM2.30664 3.55469V4.19922H20.3242V3.55469C20.3242 2.68555 19.8652 2.25586 19.0449 2.25586H3.58594C2.75586 2.25586 2.30664 2.68555 2.30664 3.55469ZM3.58594 14.4238H19.0449C19.8652 14.4238 20.3242 13.9941 20.3242 13.125V6.38672H2.30664V13.125C2.30664 13.9941 2.75586 14.4238 3.58594 14.4238ZM4.85547 12.7832C4.31836 12.7832 3.94727 12.4219 3.94727 11.9043V10.1855C3.94727 9.66797 4.31836 9.30664 4.85547 9.30664H7.12109C7.66797 9.30664 8.0293 9.66797 8.0293 10.1855V11.9043C8.0293 12.4219 7.66797 12.7832 7.12109 12.7832H4.85547Z" fill="#353F49"/>
</svg>
