<svg width="27" height="27" viewBox="0 0 27 27" fill="none" xmlns="http://www.w3.org/2000/svg">
<path d="M13.5996 26.9512C11.7585 26.9512 10.0358 26.6048 8.43164 25.9121C6.83659 25.2285 5.42839 24.276 4.20703 23.0547C2.98568 21.8333 2.02865 20.4206 1.33594 18.8164C0.652344 17.2122 0.310547 15.4941 0.310547 13.6621C0.310547 11.8301 0.652344 10.112 1.33594 8.50781C2.02865 6.89453 2.98568 5.48177 4.20703 4.26953C5.42839 3.04818 6.83659 2.0957 8.43164 1.41211C10.0358 0.719401 11.7585 0.373047 13.5996 0.373047C15.4316 0.373047 17.1497 0.719401 18.7539 1.41211C20.3581 2.0957 21.7663 3.04818 22.9785 4.26953C24.1999 5.48177 25.1523 6.89453 25.8359 8.50781C26.5286 10.112 26.875 11.8301 26.875 13.6621C26.875 15.4941 26.5286 17.2122 25.8359 18.8164C25.1523 20.4206 24.1999 21.8333 22.9785 23.0547C21.7663 24.276 20.3581 25.2285 18.7539 25.9121C17.1497 26.6048 15.4316 26.9512 13.5996 26.9512ZM13.5996 24.5176C15.0944 24.5176 16.498 24.235 17.8105 23.6699C19.123 23.1048 20.276 22.3255 21.2695 21.332C22.2721 20.3385 23.0514 19.1901 23.6074 17.8867C24.1634 16.5742 24.4414 15.166 24.4414 13.6621C24.4414 12.1582 24.1634 10.7546 23.6074 9.45117C23.0514 8.13867 22.2721 6.98568 21.2695 5.99219C20.276 4.9987 19.123 4.2194 17.8105 3.6543C16.498 3.08919 15.0944 2.80664 13.5996 2.80664C12.0957 2.80664 10.6875 3.08919 9.375 3.6543C8.07161 4.2194 6.91862 4.9987 5.91602 5.99219C4.92253 6.98568 4.14323 8.13867 3.57812 9.45117C3.02214 10.7546 2.74414 12.1582 2.74414 13.6621C2.74414 15.166 3.02214 16.5742 3.57812 17.8867C4.14323 19.1901 4.92253 20.3385 5.91602 21.332C6.91862 22.3255 8.07161 23.1048 9.375 23.6699C10.6875 24.235 12.0957 24.5176 13.5996 24.5176ZM10.6465 19.5C10.3366 19.5 10.0905 19.418 9.9082 19.2539C9.73503 19.0807 9.64844 18.8574 9.64844 18.584C9.64844 18.429 9.68034 18.2832 9.74414 18.1465C9.80794 18.0007 9.9082 17.8594 10.0449 17.7227L14.0781 13.457C14.4609 13.056 14.8073 12.6595 15.1172 12.2676C15.4362 11.8757 15.5957 11.4518 15.5957 10.9961C15.5957 10.4948 15.418 10.0938 15.0625 9.79297C14.7161 9.48307 14.2559 9.32812 13.6816 9.32812C13.0801 9.32812 12.6061 9.49219 12.2598 9.82031C11.9225 10.1393 11.6719 10.4857 11.5078 10.8594C11.3893 11.0417 11.2572 11.2012 11.1113 11.3379C10.9746 11.4655 10.7786 11.5293 10.5234 11.5293C10.25 11.5293 10.0267 11.4473 9.85352 11.2832C9.68034 11.1191 9.59375 10.9004 9.59375 10.627C9.59375 10.5449 9.59831 10.4583 9.60742 10.3672C9.61654 10.276 9.63932 10.1803 9.67578 10.0801C9.88542 9.35091 10.3594 8.74479 11.0977 8.26172C11.8359 7.77865 12.6745 7.53711 13.6133 7.53711C14.8346 7.53711 15.8145 7.83789 16.5527 8.43945C17.291 9.04102 17.6602 9.83854 17.6602 10.832C17.6602 11.5339 17.4779 12.1673 17.1133 12.7324C16.7578 13.2884 16.2793 13.8763 15.6777 14.4961L12.7793 17.5449V17.6543H17.25C17.5326 17.6543 17.765 17.7363 17.9473 17.9004C18.1296 18.0553 18.2207 18.2786 18.2207 18.5703C18.2207 18.8529 18.1296 19.0807 17.9473 19.2539C17.765 19.418 17.5326 19.5 17.25 19.5H10.6465Z" fill="#85CBD9"/>
</svg>
