<svg width="27" height="28" viewBox="0 0 27 28" fill="none" xmlns="http://www.w3.org/2000/svg">
<path d="M13.5996 27.4512C11.7585 27.4512 10.0358 27.1048 8.43164 26.4121C6.83659 25.7285 5.42839 24.776 4.20703 23.5547C2.98568 22.3333 2.02865 20.9206 1.33594 19.3164C0.652344 17.7122 0.310547 15.9941 0.310547 14.1621C0.310547 12.3301 0.652344 10.612 1.33594 9.00781C2.02865 7.39453 2.98568 5.98177 4.20703 4.76953C5.42839 3.54818 6.83659 2.5957 8.43164 1.91211C10.0358 1.2194 11.7585 0.873047 13.5996 0.873047C15.4316 0.873047 17.1497 1.2194 18.7539 1.91211C20.3581 2.5957 21.7663 3.54818 22.9785 4.76953C24.1999 5.98177 25.1523 7.39453 25.8359 9.00781C26.5286 10.612 26.875 12.3301 26.875 14.1621C26.875 15.9941 26.5286 17.7122 25.8359 19.3164C25.1523 20.9206 24.1999 22.3333 22.9785 23.5547C21.7663 24.776 20.3581 25.7285 18.7539 26.4121C17.1497 27.1048 15.4316 27.4512 13.5996 27.4512ZM13.5996 25.0176C15.0944 25.0176 16.498 24.735 17.8105 24.1699C19.123 23.6048 20.276 22.8255 21.2695 21.832C22.2721 20.8385 23.0514 19.6901 23.6074 18.3867C24.1634 17.0742 24.4414 15.666 24.4414 14.1621C24.4414 12.6582 24.1634 11.2546 23.6074 9.95117C23.0514 8.63867 22.2721 7.48568 21.2695 6.49219C20.276 5.4987 19.123 4.7194 17.8105 4.1543C16.498 3.58919 15.0944 3.30664 13.5996 3.30664C12.0957 3.30664 10.6875 3.58919 9.375 4.1543C8.07161 4.7194 6.91862 5.4987 5.91602 6.49219C4.92253 7.48568 4.14323 8.63867 3.57812 9.95117C3.02214 11.2546 2.74414 12.6582 2.74414 14.1621C2.74414 15.666 3.02214 17.0742 3.57812 18.3867C4.14323 19.6901 4.92253 20.8385 5.91602 21.832C6.91862 22.8255 8.07161 23.6048 9.375 24.1699C10.6875 24.735 12.0957 25.0176 13.5996 25.0176ZM13.627 20.2871C12.5788 20.2871 11.6628 20.0592 10.8789 19.6035C10.1042 19.1478 9.61654 18.5508 9.41602 17.8125C9.37044 17.6302 9.34766 17.457 9.34766 17.293C9.34766 17.0195 9.4388 16.7962 9.62109 16.623C9.80339 16.4408 10.0358 16.3496 10.3184 16.3496C10.7741 16.3496 11.0931 16.5729 11.2754 17.0195C11.4395 17.4479 11.7129 17.8034 12.0957 18.0859C12.4876 18.3685 13.0163 18.5098 13.6816 18.5098C14.3926 18.5098 14.9622 18.3457 15.3906 18.0176C15.8281 17.6895 16.0469 17.252 16.0469 16.7051C16.0469 16.1582 15.8327 15.7161 15.4043 15.3789C14.9759 15.0326 14.4154 14.8594 13.7227 14.8594H12.916C12.6517 14.8594 12.4329 14.7773 12.2598 14.6133C12.0957 14.4492 12.0137 14.2396 12.0137 13.9844C12.0137 13.7292 12.0957 13.5241 12.2598 13.3691C12.4238 13.2051 12.6426 13.123 12.916 13.123H13.6543C14.2376 13.123 14.7161 12.959 15.0898 12.6309C15.4727 12.2936 15.6641 11.8789 15.6641 11.3867C15.6641 10.8854 15.4909 10.4935 15.1445 10.2109C14.7982 9.92839 14.3197 9.78711 13.709 9.78711C13.1439 9.78711 12.6699 9.92383 12.2871 10.1973C11.9134 10.4616 11.6536 10.8262 11.5078 11.291C11.3346 11.7376 11.0156 11.9609 10.5508 11.9609C10.2682 11.9609 10.0358 11.8789 9.85352 11.7148C9.67122 11.5417 9.58008 11.3184 9.58008 11.0449C9.58008 10.9355 9.58464 10.8398 9.59375 10.7578C9.60286 10.6758 9.62109 10.5892 9.64844 10.498C9.83073 9.74154 10.291 9.14453 11.0293 8.70703C11.7676 8.26042 12.6745 8.03711 13.75 8.03711C14.9349 8.03711 15.9056 8.32878 16.6621 8.91211C17.4186 9.48633 17.7969 10.2246 17.7969 11.127C17.7969 11.7923 17.5736 12.3848 17.127 12.9043C16.6895 13.4238 16.1471 13.7337 15.5 13.834V13.9434C16.2747 14.0163 16.9173 14.3216 17.4277 14.8594C17.9382 15.3971 18.1934 16.0397 18.1934 16.7871C18.1934 17.8171 17.7832 18.6602 16.9629 19.3164C16.1517 19.9635 15.0397 20.2871 13.627 20.2871Z" fill="#85CBD9"/>
</svg>
