<svg width="27" height="27" viewBox="0 0 27 27" fill="none" xmlns="http://www.w3.org/2000/svg">
<path d="M13.5996 26.9512C11.7585 26.9512 10.0358 26.6048 8.43164 25.9121C6.83659 25.2285 5.42839 24.276 4.20703 23.0547C2.98568 21.8333 2.02865 20.4206 1.33594 18.8164C0.652344 17.2122 0.310547 15.4941 0.310547 13.6621C0.310547 11.8301 0.652344 10.112 1.33594 8.50781C2.02865 6.89453 2.98568 5.48177 4.20703 4.26953C5.42839 3.04818 6.83659 2.0957 8.43164 1.41211C10.0358 0.719401 11.7585 0.373047 13.5996 0.373047C15.4316 0.373047 17.1497 0.719401 18.7539 1.41211C20.3581 2.0957 21.7663 3.04818 22.9785 4.26953C24.1999 5.48177 25.1523 6.89453 25.8359 8.50781C26.5286 10.112 26.875 11.8301 26.875 13.6621C26.875 15.4941 26.5286 17.2122 25.8359 18.8164C25.1523 20.4206 24.1999 21.8333 22.9785 23.0547C21.7663 24.276 20.3581 25.2285 18.7539 25.9121C17.1497 26.6048 15.4316 26.9512 13.5996 26.9512ZM13.5996 24.5176C15.0944 24.5176 16.498 24.235 17.8105 23.6699C19.123 23.1048 20.276 22.3255 21.2695 21.332C22.2721 20.3385 23.0514 19.1901 23.6074 17.8867C24.1634 16.5742 24.4414 15.166 24.4414 13.6621C24.4414 12.1582 24.1634 10.7546 23.6074 9.45117C23.0514 8.13867 22.2721 6.98568 21.2695 5.99219C20.276 4.9987 19.123 4.2194 17.8105 3.6543C16.498 3.08919 15.0944 2.80664 13.5996 2.80664C12.0957 2.80664 10.6875 3.08919 9.375 3.6543C8.07161 4.2194 6.91862 4.9987 5.91602 5.99219C4.92253 6.98568 4.14323 8.13867 3.57812 9.45117C3.02214 10.7546 2.74414 12.1582 2.74414 13.6621C2.74414 15.166 3.02214 16.5742 3.57812 17.8867C4.14323 19.1901 4.92253 20.3385 5.91602 21.332C6.91862 22.3255 8.07161 23.1048 9.375 23.6699C10.6875 24.235 12.0957 24.5176 13.5996 24.5176ZM15.2812 19.7871C14.9622 19.7871 14.7116 19.6868 14.5293 19.4863C14.347 19.2858 14.2559 19.0033 14.2559 18.6387V17.2031H9.75781C9.32031 17.2031 8.9694 17.0801 8.70508 16.834C8.44076 16.5788 8.30859 16.2415 8.30859 15.8223C8.30859 15.6309 8.33594 15.444 8.39062 15.2617C8.44531 15.0703 8.54102 14.8607 8.67773 14.6328C8.92383 14.2135 9.20182 13.7624 9.51172 13.2793C9.82161 12.7962 10.1452 12.2995 10.4824 11.7891C10.8197 11.2695 11.1569 10.7546 11.4941 10.2441C11.8405 9.73372 12.1686 9.23242 12.4785 8.74023C12.7702 8.30273 13.0801 7.99284 13.4082 7.81055C13.7363 7.62826 14.1419 7.53711 14.625 7.53711C15.1263 7.53711 15.5319 7.67383 15.8418 7.94727C16.1608 8.2207 16.3203 8.57161 16.3203 9V15.3711H17.2227C17.5052 15.3711 17.7331 15.4531 17.9062 15.6172C18.0885 15.7812 18.1797 16.0046 18.1797 16.2871C18.1797 16.5605 18.0885 16.7839 17.9062 16.957C17.7331 17.1211 17.5052 17.2031 17.2227 17.2031H16.3203V18.6387C16.3203 19.0124 16.2292 19.2995 16.0469 19.5C15.8646 19.6914 15.6094 19.7871 15.2812 19.7871ZM14.2559 15.3711V9.30078H14.1602C13.9141 9.70182 13.6497 10.112 13.3672 10.5312C13.0938 10.9505 12.8203 11.3698 12.5469 11.7891C12.2734 12.2083 12.0046 12.6276 11.7402 13.0469C11.485 13.457 11.2389 13.8535 11.002 14.2363C10.765 14.61 10.5553 14.9609 10.373 15.2891V15.3711H14.2559Z" fill="#85CBD9"/>
</svg>
