<svg width="27" height="28" viewBox="0 0 27 28" fill="none" xmlns="http://www.w3.org/2000/svg">
<path d="M13.5996 27.4512C11.7585 27.4512 10.0358 27.1048 8.43164 26.4121C6.83659 25.7285 5.42839 24.776 4.20703 23.5547C2.98568 22.3333 2.02865 20.9206 1.33594 19.3164C0.652344 17.7122 0.310547 15.9941 0.310547 14.1621C0.310547 12.3301 0.652344 10.612 1.33594 9.00781C2.02865 7.39453 2.98568 5.98177 4.20703 4.76953C5.42839 3.54818 6.83659 2.5957 8.43164 1.91211C10.0358 1.2194 11.7585 0.873047 13.5996 0.873047C15.4316 0.873047 17.1497 1.2194 18.7539 1.91211C20.3581 2.5957 21.7663 3.54818 22.9785 4.76953C24.1999 5.98177 25.1523 7.39453 25.8359 9.00781C26.5286 10.612 26.875 12.3301 26.875 14.1621C26.875 15.9941 26.5286 17.7122 25.8359 19.3164C25.1523 20.9206 24.1999 22.3333 22.9785 23.5547C21.7663 24.776 20.3581 25.7285 18.7539 26.4121C17.1497 27.1048 15.4316 27.4512 13.5996 27.4512ZM13.5996 25.0176C15.0944 25.0176 16.498 24.735 17.8105 24.1699C19.123 23.6048 20.276 22.8255 21.2695 21.832C22.2721 20.8385 23.0514 19.6901 23.6074 18.3867C24.1634 17.0742 24.4414 15.666 24.4414 14.1621C24.4414 12.6582 24.1634 11.2546 23.6074 9.95117C23.0514 8.63867 22.2721 7.48568 21.2695 6.49219C20.276 5.4987 19.123 4.7194 17.8105 4.1543C16.498 3.58919 15.0944 3.30664 13.5996 3.30664C12.0957 3.30664 10.6875 3.58919 9.375 4.1543C8.07161 4.7194 6.91862 5.4987 5.91602 6.49219C4.92253 7.48568 4.14323 8.63867 3.57812 9.95117C3.02214 11.2546 2.74414 12.6582 2.74414 14.1621C2.74414 15.666 3.02214 17.0742 3.57812 18.3867C4.14323 19.6901 4.92253 20.8385 5.91602 21.832C6.91862 22.8255 8.07161 23.6048 9.375 24.1699C10.6875 24.735 12.0957 25.0176 13.5996 25.0176ZM14.2832 20.2871C13.9277 20.2871 13.6497 20.1777 13.4492 19.959C13.2578 19.7402 13.1621 19.4303 13.1621 19.0293V10.4434H13.0664L11.4531 11.5098C11.2982 11.61 11.1706 11.6784 11.0703 11.7148C10.9792 11.7422 10.888 11.7559 10.7969 11.7559C10.569 11.7559 10.3776 11.6693 10.2227 11.4961C10.0677 11.3229 9.99023 11.127 9.99023 10.9082C9.99023 10.5801 10.1406 10.3112 10.4414 10.1016L12.7109 8.57031C13.2396 8.21484 13.7363 8.03711 14.2012 8.03711C14.584 8.03711 14.8848 8.14648 15.1035 8.36523C15.3314 8.58398 15.4453 8.89388 15.4453 9.29492V19.0293C15.4453 19.4303 15.3405 19.7402 15.1309 19.959C14.9303 20.1777 14.6478 20.2871 14.2832 20.2871Z" fill="#85CBD9"/>
</svg>
