<svg width="27" height="27" viewBox="0 0 27 27" fill="none" xmlns="http://www.w3.org/2000/svg">
<path d="M13.5 2.22729C19.7257 2.22729 24.7733 7.27412 24.7734 13.4998C24.7734 19.7255 19.7258 24.7732 13.5 24.7732C7.27437 24.773 2.22754 19.7254 2.22754 13.4998C2.22768 7.27421 7.27446 2.22744 13.5 2.22729Z" stroke="white" stroke-width="2"/>
<path d="M9.41855 14.5772L6.34749 13.5766C6.34749 13.5766 5.98046 13.4277 6.09864 13.09C6.12297 13.0204 6.17205 12.9611 6.31886 12.8593C6.99932 12.385 18.9137 8.10266 18.9137 8.10266C18.9137 8.10266 19.2501 7.9893 19.4485 8.0647C19.4976 8.07989 19.5418 8.10785 19.5765 8.14571C19.6113 8.18357 19.6353 8.22998 19.6462 8.28019C19.6677 8.36887 19.6766 8.46011 19.6729 8.55127C19.6719 8.63013 19.6624 8.70322 19.6551 8.81783C19.5826 9.98865 17.411 18.7268 17.411 18.7268C17.411 18.7268 17.2811 19.2381 16.8156 19.2556C16.7012 19.2593 16.5872 19.24 16.4805 19.1987C16.3737 19.1574 16.2764 19.095 16.1943 19.0153C15.2808 18.2295 12.1235 16.1077 11.4259 15.6411C11.4101 15.6303 11.3969 15.6164 11.387 15.6001C11.3771 15.5838 11.3709 15.5656 11.3686 15.5467C11.3589 15.4975 11.4123 15.4366 11.4123 15.4366C11.4123 15.4366 16.91 10.5499 17.0563 10.0369C17.0676 9.99714 17.0248 9.97753 16.9673 9.99494C16.6022 10.1293 10.2724 14.1266 9.57375 14.5678C9.52347 14.583 9.47031 14.5862 9.41855 14.5772Z" fill="white"/>
</svg>
