<svg width="20" height="19" viewBox="0 0 20 19" fill="none" xmlns="http://www.w3.org/2000/svg">
<path d="M1.83008 6.42969C1.20508 6.42969 0.853516 6.07812 0.853516 5.44336V3.20703C0.853516 1.19531 1.92773 0.140625 3.93945 0.140625H6.17578C6.82031 0.140625 7.17188 0.492188 7.17188 1.11719C7.17188 1.75195 6.82031 2.09375 6.17578 2.09375H4.08594C3.25586 2.09375 2.80664 2.52344 2.80664 3.39258V5.44336C2.80664 6.07812 2.46484 6.42969 1.83008 6.42969ZM18.2754 6.42969C17.6504 6.42969 17.2988 6.07812 17.2988 5.44336V3.39258C17.2988 2.52344 16.8398 2.09375 16.0195 2.09375H13.9297C13.2949 2.09375 12.9434 1.75195 12.9434 1.11719C12.9434 0.492188 13.2852 0.140625 13.9297 0.140625H16.166C18.1875 0.140625 19.252 1.20508 19.252 3.20703V5.44336C19.252 6.07812 18.9102 6.42969 18.2754 6.42969ZM10.0625 3.87109C11.7422 3.87109 13.0996 5.22852 13.0996 6.89844C13.0996 8.16797 12.3281 9.22266 10.9512 9.81836L12.084 10.9609C12.2207 11.0977 12.2305 11.3027 12.0938 11.4297L10.9219 12.5918L11.752 13.4219C11.8887 13.5586 11.8984 13.7637 11.752 13.9004L10.2871 15.3555C10.1602 15.4922 9.97461 15.4824 9.85742 15.3652L9.04688 14.5742C8.93945 14.4766 8.89062 14.3594 8.88086 14.2129V9.73047C7.74805 9.26172 7.00586 8.16797 7.00586 6.89844C7.00586 5.22852 8.36328 3.87109 10.0625 3.87109ZM10.0527 5.33594C9.54492 5.33594 9.13477 5.75586 9.13477 6.26367C9.13477 6.77148 9.55469 7.19141 10.0527 7.19141C10.5508 7.19141 10.9707 6.77148 10.9707 6.26367C10.9707 5.75586 10.5508 5.33594 10.0527 5.33594ZM3.93945 18.5391C1.92773 18.5391 0.853516 17.4844 0.853516 15.4824V13.2461C0.853516 12.6113 1.19531 12.2598 1.83008 12.2598C2.46484 12.2598 2.80664 12.6113 2.80664 13.2461V15.2871C2.80664 16.166 3.25586 16.5859 4.08594 16.5859H6.17578C6.81055 16.5859 7.17188 16.9375 7.17188 17.5625C7.17188 18.1973 6.82031 18.5391 6.17578 18.5391H3.93945ZM13.9297 18.5391C13.2852 18.5391 12.9434 18.1973 12.9434 17.5625C12.9434 16.9375 13.2852 16.5859 13.9297 16.5859H16.0195C16.8398 16.5859 17.2988 16.166 17.2988 15.2871V13.2461C17.2988 12.6113 17.6406 12.2598 18.2754 12.2598C18.9004 12.2598 19.252 12.6113 19.252 13.2461V15.4824C19.252 17.4844 18.1875 18.5391 16.166 18.5391H13.9297Z" fill="#353F49"/>
</svg>
